<?xml version="1.0" encoding="UTF-8" standalone="no"?>
<!-- Created with Inkscape (http://www.inkscape.org/) -->

<svg
   xmlns:dc="http://purl.org/dc/elements/1.1/"
   xmlns:cc="http://creativecommons.org/ns#"
   xmlns:rdf="http://www.w3.org/1999/02/22-rdf-syntax-ns#"
   xmlns:svg="http://www.w3.org/2000/svg"
   xmlns="http://www.w3.org/2000/svg"
   xmlns:sodipodi="http://sodipodi.sourceforge.net/DTD/sodipodi-0.dtd"
   xmlns:inkscape="http://www.inkscape.org/namespaces/inkscape"
   width="1619.301"
   height="532.87469"
   viewBox="0 0 1619.301 532.87469"
   version="1.1"
   id="SVGRoot"
   inkscape:version="0.92.2 2405546, 2018-03-11"
   sodipodi:docname="brand.svg">
  <sodipodi:namedview
     id="base"
     pagecolor="#ffffff"
     bordercolor="#ffffff"
     borderopacity="0"
     inkscape:pageopacity="0.0"
     inkscape:pageshadow="2"
     inkscape:zoom="0.64"
     inkscape:cx="417.46305"
     inkscape:cy="332.06235"
     inkscape:document-units="px"
     inkscape:current-layer="layer1"
     showgrid="false"
     inkscape:window-width="1920"
     inkscape:window-height="1016"
     inkscape:window-x="0"
     inkscape:window-y="27"
     inkscape:window-maximized="1" />
  <defs
     id="defs1202" />
  <metadata
     id="metadata1205">
    <rdf:RDF>
      <cc:Work
         rdf:about="">
        <dc:format>image/svg+xml</dc:format>
        <dc:type
           rdf:resource="http://purl.org/dc/dcmitype/StillImage" />
        <dc:title />
      </cc:Work>
    </rdf:RDF>
  </metadata>
  <g
     id="layer1"
     inkscape:groupmode="layer"
     inkscape:label="Layer 1"
     transform="translate(326.83805,-99.187652)">
    <path
       id="path956-3"
       style="display:inline;opacity:1;fill:#000000;fill-opacity:1;stroke:#000000;stroke-width:5;stroke-linecap:butt;stroke-linejoin:miter;stroke-opacity:1;stroke-miterlimit:4;stroke-dasharray:none"
       d="m 875.64394,414.79451 c 5.1271,19.9534 -51.6223,117.2653 -7.8275,128.7866 93.9394,32.9864 352.18566,-91.7067 419.80566,-87.5853 51.789,-3.7743 -375.10706,172.3626 -440.08406,106.5693 -43.5706,-44.1179 -2.0889,-123.281 -0.1573,-131.4365 0.9927,-6.949 -139.8202,124.2587 -153.4407,121.5131 -45.57609,-9.1872 69.7678,-116.747 64.2868,-128.1422 -48.761,23.1173 -102.35499,71.6081 -154.02939,110.0211 -2.4215,1.8001 -19.0479,-5.1473 -1.7259,-49.1859 -45.259,38.0385 -88.9916,70.8441 -123.0051,70.3271 l -0.8629,-27.8288 c 62.4583,-0.6565 183.2177,-142.9108 189.3936,-148.4266 2.9221,-2.6099 18.46619,24.736 15.15649,28.2664 -5.5175,5.8854 -30.01249,37.9681 -36.24219,56.9521 0.7162,-0.7584 85.31399,-65.0949 120.65429,-75.307 14.3664,-4.1514 43.0062,18.5313 0.2795,70.4346 -8.2733,10.2395 77.7266,-65.3984 93.5953,-63.5682 3.7037,0.4272 12.3573,11.4254 14.2034,18.6102 z m -409.58349,-29.7529 c -29.9761,0.9434 -159.4945,78.4495 -163.3614,102.8809 -3.164,19.9908 4.3692,41.542 24.1621,40.9883 37.4898,-1.0489 100.6039,-53.5865 108.7266,-61.6992 -2.6637,88.9647 43.1055,88.4492 43.1055,88.4492 l -0.8633,-27.8281 c -31.8597,-8.8998 -14.2753,-103.6468 7.1016,-124.6329 -0.3843,-6.5392 -6.577,-8.8193 -13.5332,-16.6699 -0.9736,-1.0987 -2.7976,-1.5682 -5.3379,-1.4883 z m -35.7286,41.2442 c 0.5712,-0.018 0.9378,0.1209 1.0782,0.4297 l 1.5254,3.3554 c 2.0606,4.5334 -90.3894,83.3722 -104.0332,68.3399 -6.2631,-6.9005 89.8158,-71.7632 101.4296,-72.125 z m -562.0234,-216.1322 c 0,0 -1.5171,18.1677 1.2943,27.1817 1.2732,4.0821 7.9791,5.5229 12.0808,4.3145 58.087905,-17.1136 192.040005,-72.5031 209.255605,-95.783 17.215595,-23.2799 -10.6946,-39.2712 -25.8873,-46.165697 -98.7863,12.179297 -396.242695,104.623197 -391.329595,198.469297 6.8672,131.171 470.49339,10.5963 558.73419,182.9369 -41.0303,125.5995 -413.9862,128.2319 -450.0076,122.1018 5.3983,-49.2756 509.9798,-121.6703 509.9798,-121.6703 -29.7552,-38.5032 -557.10189,56.0584 -556.14549,124.6905 -19.0744,56.8585 513.16269,19.4457 516.02019,-126.8478 -47.3556,-179.7161 -566.73169,-99.8019 -559.16569,-179.9167 17.6708,-84.5638 336.578295,-188.4539 371.051295,-168.2674 -8.6564,19.8322 -167.267305,83.0603 -195.880505,78.9562 z"
       inkscape:connector-curvature="0" />
  </g>
</svg>
